<svg id="Capa_1" data-name="Capa 1" xmlns="http://www.w3.org/2000/svg" viewBox="0 0 404 142"><title>OMTOUR_ICONOS</title><path d="M83.69,62.49l6,3.11,6.91-10.48L84,57.3l1-19a35.09,35.09,0,0,1,21.28,35.92l6,1.43A41.18,41.18,0,0,0,85.26,31.91L86.68,4.26,71.24,68.91,70.75,71l12.92-7.94Z"/><path d="M72.83,71.5,70.75,71l7.94,12.92.57,0-3.11,6,10.48,6.91L84.45,84.22l18.77,1A35.09,35.09,0,0,1,68,105.45l-1.43,6a41.17,41.17,0,0,0,43.08-25.91l27.81,1.43Z"/><path d="M62.24,58.05l3.11-6L54.87,45.16,57,57.78l-17.85-.92A35.1,35.1,0,0,1,73.13,35.63l1.44-6A41.18,41.18,0,0,0,32.78,56.54L4,55.06,68.66,70.5l2.09.5L62.81,58.08Z"/><path d="M57.8,79.51l-6-3.11L44.91,86.88,57.53,84.7l-.91,17.64A35.1,35.1,0,0,1,36.47,68.05l-6-1.43a41.18,41.18,0,0,0,25.81,42.19l-1.48,28.93L70.25,73.09l.5-2.09L57.83,78.94Z"/><path d="M205.1,56.81a23.38,23.38,0,0,0-1.71-5.73,11.44,11.44,0,0,0-3.7-4.62,9.73,9.73,0,0,0-4.7-2,26.15,26.15,0,0,0-5.18-.2l-2.39.24-.88-.4a9.4,9.4,0,0,0-2.79-.72,13.57,13.57,0,0,0-5.1.88,30.74,30.74,0,0,0-5.29,2.39A38.41,38.41,0,0,0,168.56,50a49.8,49.8,0,0,0-8.08,7.6,51.49,51.49,0,0,0-6.25,9.19,52.55,52.55,0,0,0-2.47,5.37A34.27,34.27,0,0,0,150,77.91a31.91,31.91,0,0,0-.64,5.93,20.68,20.68,0,0,0,.76,5.85,15.07,15.07,0,0,0,2.47,5.18,16,16,0,0,0,3.94,3.74,17.29,17.29,0,0,0,5,2.27,21.37,21.37,0,0,0,5.69.76,29.23,29.23,0,0,0,10.19-1.79,39.08,39.08,0,0,0,9.08-4.78,42.19,42.19,0,0,0,7.64-7,54,54,0,0,0,6-8.44,45.65,45.65,0,0,0,4.34-11A30.1,30.1,0,0,0,205.1,56.81Zm-6.33-.12a31.86,31.86,0,0,1-1.27,6,62.27,62.27,0,0,1-2.39,6.49q-1.39,3.22-3.07,6.29t-3.26,5.45a46.21,46.21,0,0,1-7.64,8.68,31.21,31.21,0,0,1-7.72,5.06,16,16,0,0,1-7,1.51,8.64,8.64,0,0,1-5.37-1.91,9.49,9.49,0,0,1-3-5.25,19,19,0,0,1,.28-8.48,36.47,36.47,0,0,1,3-8.36,64.16,64.16,0,0,1,4.74-8.12,20.6,20.6,0,0,0-.64,5,10.86,10.86,0,0,0,1.11,4.78,8.75,8.75,0,0,0,3.54,4.1A10.15,10.15,0,0,0,175,79.34a12.76,12.76,0,0,0,5.18-1,13.85,13.85,0,0,0,4.5-2.87,18.51,18.51,0,0,0,5.41-9.71,14.73,14.73,0,0,0,.4-2.79,15.59,15.59,0,0,0-.12-2.95,10.43,10.43,0,0,0-.8-2.79,7.83,7.83,0,0,0-1.63-2.39A21.11,21.11,0,0,1,186.51,59a30.59,30.59,0,0,1-2.75,4.94,29.89,29.89,0,0,1-3.82,4.58,12.8,12.8,0,0,1-4.54,3,2.42,2.42,0,0,1-2.23,0A2.91,2.91,0,0,1,172,70a6,6,0,0,1-.32-2.23,7.68,7.68,0,0,1,.36-2.19,25.72,25.72,0,0,1,3.9-7.21,31.84,31.84,0,0,1,6.13-6.25,21,21,0,0,1,7.13-3.66A9.08,9.08,0,0,1,196,49a4.64,4.64,0,0,1,2.39,2.91A12,12,0,0,1,198.77,56.69Z"/><path d="M399.24,76.91a1.56,1.56,0,0,0-1.79.12A48.8,48.8,0,0,1,393,84a39.13,39.13,0,0,1-4.86,5.41,12.65,12.65,0,0,1-3.78,2.47,3.44,3.44,0,0,1-2.75.12,2.53,2.53,0,0,1-1.19-2.23,10.76,10.76,0,0,1,.88-4.5,44.47,44.47,0,0,1,4.3-8.28q2.87-4.46,5.89-8.36a4.46,4.46,0,0,0,1.39-4.1q-.44-2.19-3.62-4.66-1.36-1.11-2.31-.52a7.9,7.9,0,0,0-2.07,2.19,16.8,16.8,0,0,1-3.82.72h-1.31a2.6,2.6,0,0,1-1.31-.32,14.23,14.23,0,0,0,.88-3.23,2.36,2.36,0,0,0-1.11-2.51A2.31,2.31,0,0,0,375.8,56a4.36,4.36,0,0,0-2,1.91,7.83,7.83,0,0,0-.92,3.18,6.56,6.56,0,0,0,.8,3.66,79.06,79.06,0,0,1-6.61,13.73,87,87,0,0,1-8.76,12h0a13.9,13.9,0,0,1-3,2.22q-2,1-3-.56t.4-5.81a45.63,45.63,0,0,1,2.35-5.45q1.39-2.75,2.83-5.41l2.83-5.25q1.39-2.59,2.51-5a2.56,2.56,0,0,0-.2-2.79q-.92-1.2-4.58-2.31a2.25,2.25,0,0,0-2.11.2,7,7,0,0,0-1.47,1.71q-2.79,4.54-5.21,9a73.33,73.33,0,0,1-5.45,8.48l-2.67,3.42q-1.31,1.67-2.83,3.26A16.4,16.4,0,0,1,335,89.37q-1.83,1-2.63.4t-.16-3.22a32.48,32.48,0,0,1,3.66-7.68q1.19-2,2.55-4.18t2.79-4.3q1.43-2.11,2.79-4T346.5,63a7.27,7.27,0,0,0-1.11-1,8.48,8.48,0,0,0-1.67-1,6.19,6.19,0,0,0-2.19-.52,7,7,0,0,0-2.67.4,5.91,5.91,0,0,0-2,1.23,28.22,28.22,0,0,0-2,2A24,24,0,0,0,333,66.32q-.84,1.15-1.39,1.95a55.52,55.52,0,0,0-4.38,7.37c-.57,1.16-1.09,2.34-1.57,3.53A11.44,11.44,0,0,1,322.73,82a5.1,5.1,0,0,1-5,.56,31.66,31.66,0,0,0,2.23-7,17.34,17.34,0,0,0-.08-7.21,11.58,11.58,0,0,0-2-4.06,6.08,6.08,0,0,0-3.74-2.39,5,5,0,0,0-2.55.16l-.24-.16a8.77,8.77,0,0,0-2.83-.84,12,12,0,0,0-2.91,0,13.52,13.52,0,0,0-5.14,1.51,20.67,20.67,0,0,0-4.42,3.11,25.6,25.6,0,0,0-3.58,4.3,27.32,27.32,0,0,0-2.67,5.1,27.73,27.73,0,0,0-.94,2.79c-.87,1.64-1.74,3.12-2.6,4.42A40.26,40.26,0,0,1,283,86.59,25.72,25.72,0,0,1,278,90.93q-2.31,1.47-3.66,1.23T273,89.89q0-2,1.87-6.25,1-2.07,1.83-3.78l1.19-2.35,6.77-13.61,1.83-3.82h.16l1.67-.24,2.63-.32q1.43-.16,2.87-.4l2.39-.4q1-.16,1.23-.48a2.59,2.59,0,0,0,0-1.51A5.27,5.27,0,0,0,295.9,54a6.46,6.46,0,0,0-2.75-1.63,18,18,0,0,0-2.87-.48l1-1.91q.48-1,.8-1.71a2.82,2.82,0,0,0,0-1.87,3,3,0,0,0-.84-1.11,6.27,6.27,0,0,0-1.59-1.07,7,7,0,0,0-1.91-.6,2.07,2.07,0,0,0-1.63.32,4.55,4.55,0,0,0-1.31,1.71,19.43,19.43,0,0,1-1,2L281.45,52a7.81,7.81,0,0,1-.8.12,7.56,7.56,0,0,1-.8,0,35.05,35.05,0,0,0-4.34.8,10.65,10.65,0,0,0-4,1.91,5.64,5.64,0,0,0-1.23,1.35,8.08,8.08,0,0,0-1,1.91,7.24,7.24,0,0,0-.4,2.11,3.79,3.79,0,0,0,.36,1.87q.64,0,2.55-.2t4.38-.52q-2.31,4.06-4.58,8.08a83.42,83.42,0,0,0-4.1,8.32l-.26.61a48.55,48.55,0,0,1-3.84,5.88,18.77,18.77,0,0,1-5.69,5q-3.34,1.83-4.74,1t-.52-3.3a45.93,45.93,0,0,1,2.91-6.73q1.71-3.22,3.38-6.49l3.42-6.45q.4-.72.8-1.51a6.34,6.34,0,0,0,.56-1.59c.11-.37-.24-1-1-1.75a11.23,11.23,0,0,0-3.26-2.15,6.62,6.62,0,0,0-4-.64,13.61,13.61,0,0,0-5.1,2.47,51.6,51.6,0,0,0-10.91,10.11l1.91-3.9a20.42,20.42,0,0,1,1-1.95,6.08,6.08,0,0,0,.8-2,2,2,0,0,0-.52-1.35,8.66,8.66,0,0,0-1.55-1.55,10,10,0,0,0-2.11-1.27,6.65,6.65,0,0,0-2.19-.6,4.72,4.72,0,0,0-2.11.32,11.33,11.33,0,0,0-1.87,1A19.64,19.64,0,0,0,231,62a14.21,14.21,0,0,0-1.23,1.07,40.24,40.24,0,0,0-3.26,3.11q-1.91,2-3.9,4.18t-3.82,4.3q-1.83,2.11-2.95,3.46.72-1.27,1.83-3.11T220,71.26l2.47-3.9q1.23-2,2.11-3.54a2.39,2.39,0,0,0,.32-2.31,9.14,9.14,0,0,0-2.31-2.31,3.6,3.6,0,0,0-3.34-.84A3.9,3.9,0,0,0,217,60.15l-4.86,8q-1.75,2.79-3.62,6.05t-3.46,6.49q-1.59,3.22-2.79,6.13a23.52,23.52,0,0,0-1.51,4.82,2.62,2.62,0,0,0,.6,2,8.18,8.18,0,0,0,1.87,1.83,6.55,6.55,0,0,0,2.27,1.07,2.1,2.1,0,0,0,1.87-.28,9.6,9.6,0,0,0,1.27-1.43l1.63-2.15q.84-1.11,1.55-2.15t1-1.43q1.67-2.31,3.38-4.54t3.54-4.46q2.79-3.5,5.85-6.89T232,66.76q-2.87,5.57-5.29,10.51T222.14,87c-.11.32-.28.76-.52,1.31s-.48,1.13-.72,1.71-.45,1.13-.64,1.63-.31.86-.36,1.07a2.47,2.47,0,0,0,.44,1.91,4.81,4.81,0,0,0,1.51,1.31,11.69,11.69,0,0,0,2,.88,8.14,8.14,0,0,0,1.83.44,1.89,1.89,0,0,0,1.31-.72,17.07,17.07,0,0,0,1.63-2.15q1-1.43,2.23-3.5t3.11-4.7q2.07-3,4.22-5.85t4.54-5.61q1.91-2.23,4.5-4.7t4.9-4.3q-1.59,3.19-3.38,6.17a47.37,47.37,0,0,0-3.14,6.25q-.8,1.83-1.55,3.94a24.18,24.18,0,0,0-1.11,4.34,15.93,15.93,0,0,0-.12,4.34,7.17,7.17,0,0,0,1.59,3.78,6.35,6.35,0,0,0,3.5,2.59,8.23,8.23,0,0,0,4,0,14.17,14.17,0,0,0,4-1.63A21.81,21.81,0,0,0,259.32,93a44.08,44.08,0,0,0,5-5.19c0,.3-.06.6-.08.9a11.81,11.81,0,0,0,.36,3.74,7,7,0,0,0,1.59,3.11,5.45,5.45,0,0,0,2.95,1.75,10.18,10.18,0,0,0,4.9.08,11.33,11.33,0,0,0,4.34-1.91A24.85,24.85,0,0,0,282.49,92a55.83,55.83,0,0,0,3.62-4.26c.66-.86,1.29-1.75,1.89-2.65,0,.38,0,.76.06,1.14a15.69,15.69,0,0,0,1.19,4.7,13.61,13.61,0,0,0,2.55,3.94,10.85,10.85,0,0,0,3.74,2.63,10.42,10.42,0,0,0,4.78.76,12.74,12.74,0,0,0,4.1-1A17,17,0,0,0,308,95.1a23,23,0,0,0,3.14-2.9q1.47-1.63,2.75-3.3a18,18,0,0,0,9.28-3.07l.42-.32c-.11.5-.21,1-.3,1.55a13.75,13.75,0,0,0-.12,3.74,10,10,0,0,0,1,3.42,6.35,6.35,0,0,0,2.55,2.63,5.13,5.13,0,0,0,4.18.44,13.52,13.52,0,0,0,4.42-2.47,29,29,0,0,0,4.3-4.34q2.07-2.55,3.9-5.1a16.41,16.41,0,0,0-.72,5.3,9.88,9.88,0,0,0,1.67,5.13A6.21,6.21,0,0,0,348,98.73a8,8,0,0,0,4.18.08A14.06,14.06,0,0,0,356.33,97a17.62,17.62,0,0,0,3.46-2.79,48.12,48.12,0,0,0,5.89-7.32l.61-1c.56-.69,1.11-1.46,1.66-2.3q1.55-2.39,3.07-5.25,1.83-3.34,3.18-6.49t2.23-5.45a14.69,14.69,0,0,0,2.23.76,14.25,14.25,0,0,0,1.83.36,3.21,3.21,0,0,0,.88.08,61.75,61.75,0,0,0-4.62,7,57,57,0,0,0-4,8.36,16.27,16.27,0,0,0-1.27,6.25,9.41,9.41,0,0,0,1.19,4.62,7.2,7.2,0,0,0,3,2.83,8.22,8.22,0,0,0,4.3.8,14,14,0,0,0,5-1.39,18.62,18.62,0,0,0,5.18-3.78,42.25,42.25,0,0,0,5.37-6.53q2.27-3.42,4.42-7.48A1.9,1.9,0,0,0,399.24,76.91Zm-84-2.75a19.16,19.16,0,0,1-.76,4.46,3,3,0,0,0-1-.88,3.13,3.13,0,0,0-2.83.08,12,12,0,0,0-2.91,1.91,8.57,8.57,0,0,0-2,2.83,3.38,3.38,0,0,0,0,2.91,4.35,4.35,0,0,0,1.39,1.71,7.77,7.77,0,0,0,2,1.08,11.92,11.92,0,0,1-5,3.7,5.65,5.65,0,0,1-4.62-.12,4.37,4.37,0,0,1-2.31-2.67,11.52,11.52,0,0,1-.52-4.3,20.94,20.94,0,0,1,1-5.14,30.87,30.87,0,0,1,2.15-5.21A23.83,23.83,0,0,1,302.87,70a12.76,12.76,0,0,1,3.74-3.07,10.83,10.83,0,0,1,2.47-1,9.12,9.12,0,0,1,2.71-.24,11.7,11.7,0,0,1,1.87,1.63,5.55,5.55,0,0,1,1.15,2.19A16.09,16.09,0,0,1,315.25,74.17Z"/></svg>