<svg xmlns="http://www.w3.org/2000/svg" data-name="Capa 1" width="242" height="242"><rect id="backgroundrect" width="100%" height="100%" x="0" y="0" fill="none" stroke="none"/><title>OMTOUR_ICONOS</title><g class="currentLayer" style=""><title>Layer 1</title><path d="M121.37,94.13l-.47,2.42,14.47-9.77v-.66l7,3.28L149.83,77l-14.41,3.12.18-21.88a40.39,40.39,0,0,1,26.25,40.26l6.94,1.34a47.4,47.4,0,0,0-33.12-49L135.93,19Z" id="svg_1" class="" fill="#ffffff" fill-opacity="1"/><path d="M131.33,111l-3.28,7,12.39,7.43-3.12-14.41,21.63.18a40.39,40.39,0,0,1-39.47,25.06l-1.34,6.94a47.4,47.4,0,0,0,48.26-31.93l32.05.27L123.32,97l-2.42-.47L130.67,111Z" id="svg_2" class="" fill="#ffffff" fill-opacity="1"/><path d="M118.48,96.09l2.42.47-9.77-14.47h-.66l3.28-7-12.39-7.43L104.49,82l-20.58-.17a40.4,40.4,0,0,1,38-26.1l1.35-7a47.41,47.41,0,0,0-46.73,33l-33.17-.28Z" id="svg_3" class="" fill="#ffffff" fill-opacity="1"/><path d="M106.43,107l-7-3.28L92,116.09,106.38,113l-.17,20.33A40.4,40.4,0,0,1,81.33,94.86l-7-1.35a47.4,47.4,0,0,0,31.77,47.25l-.28,33.34L120.43,99l.47-2.42-14.47,9.77Z" id="svg_4" class="" fill="#ffffff" fill-opacity="1"/><path d="M70.89,199.44a21.48,21.48,0,0,0,.43-8.44,16.72,16.72,0,0,0-1.22-4.09,8.16,8.16,0,0,0-2.64-3.3,6.93,6.93,0,0,0-3.35-1.39,18.6,18.6,0,0,0-3.69-.14l-1.7.17-.62-.28a6.68,6.68,0,0,0-2-.51,9.68,9.68,0,0,0-3.64.62,22,22,0,0,0-3.78,1.71,27.38,27.38,0,0,0-3.44,2.33,35.53,35.53,0,0,0-5.77,5.43A36.78,36.78,0,0,0,35,198.1a37.67,37.67,0,0,0-1.76,3.84A24.41,24.41,0,0,0,32,206.06a22.77,22.77,0,0,0-.45,4.23,14.78,14.78,0,0,0,.54,4.18,10.77,10.77,0,0,0,1.76,3.69,11.43,11.43,0,0,0,2.81,2.67,12.34,12.34,0,0,0,3.58,1.62,15.25,15.25,0,0,0,4.06.54,20.86,20.86,0,0,0,7.27-1.28,27.89,27.89,0,0,0,6.48-3.41,30.08,30.08,0,0,0,5.46-5,38.64,38.64,0,0,0,4.26-6A32.56,32.56,0,0,0,70.89,199.44Zm-4.09-8.53a22.75,22.75,0,0,1-.91,4.29,44.58,44.58,0,0,1-1.7,4.63q-1,2.3-2.19,4.49t-2.33,3.89a33,33,0,0,1-5.46,6.19A22.28,22.28,0,0,1,48.7,218a11.41,11.41,0,0,1-5,1.08,6.16,6.16,0,0,1-3.84-1.36A6.77,6.77,0,0,1,37.76,214a13.57,13.57,0,0,1,.2-6.05,26,26,0,0,1,2.13-6,46,46,0,0,1,3.38-5.8,14.72,14.72,0,0,0-.45,3.58,7.76,7.76,0,0,0,.79,3.41,6.24,6.24,0,0,0,2.53,2.93,7.25,7.25,0,0,0,3.47,1,9.11,9.11,0,0,0,3.69-.68,9.88,9.88,0,0,0,3.21-2,13.21,13.21,0,0,0,3.86-6.93,10.5,10.5,0,0,0,.28-2,11.13,11.13,0,0,0-.09-2.1,7.46,7.46,0,0,0-.57-2A5.61,5.61,0,0,0,59,189.64a15,15,0,0,1-1,2.9,21.74,21.74,0,0,1-2,3.52,21.3,21.3,0,0,1-2.73,3.27,9.13,9.13,0,0,1-3.24,2.13,1.72,1.72,0,0,1-1.59,0,2.07,2.07,0,0,1-.82-1.08,4.26,4.26,0,0,1-.23-1.59,5.48,5.48,0,0,1,.26-1.56,18.34,18.34,0,0,1,2.78-5.14,22.72,22.72,0,0,1,4.38-4.46A15,15,0,0,1,60,185a6.48,6.48,0,0,1,4.86.4,3.31,3.31,0,0,1,1.71,2.07A8.54,8.54,0,0,1,66.8,190.91Z" id="svg_5" class="" fill="#ffffff" fill-opacity="1"/><path d="M191,209.7a11.61,11.61,0,0,0-.91,4.46,6.72,6.72,0,0,0,.85,3.3,5.14,5.14,0,0,0,2.16,2,5.86,5.86,0,0,0,3.07.57,10,10,0,0,0,3.58-1,13.3,13.3,0,0,0,3.69-2.7,30.19,30.19,0,0,0,3.84-4.66q1.62-2.44,3.15-5.34a1.36,1.36,0,0,0-.54-1,1.11,1.11,0,0,0-1.28.09,34.91,34.91,0,0,1-3.18,5A28,28,0,0,1,202,214.3a9,9,0,0,1-2.7,1.76,2.46,2.46,0,0,1-2,.09,1.8,1.8,0,0,1-.85-1.59,7.67,7.67,0,0,1,.62-3.21,31.67,31.67,0,0,1,3.07-5.91q2-3.18,4.2-6a3.19,3.19,0,0,0,1-2.93,6.25,6.25,0,0,0-2.59-3.32q-1-.79-1.65-.37a5.65,5.65,0,0,0-1.48,1.56,12,12,0,0,1-2.73.51H196a1.84,1.84,0,0,1-.94-.23,10.16,10.16,0,0,0,.62-2.3,1.68,1.68,0,0,0-.8-1.79,1.65,1.65,0,0,0-1.7-.17,3.11,3.11,0,0,0-1.39,1.37,5.57,5.57,0,0,0-.65,2.27,4.69,4.69,0,0,0,.57,2.61,56.4,56.4,0,0,1-4.72,9.8,61.93,61.93,0,0,1-6.25,8.55h0a9.9,9.9,0,0,1-2.14,1.59q-1.42.74-2.16-.4t.28-4.15a32.68,32.68,0,0,1,1.68-3.89q1-2,2-3.86l2-3.75q1-1.85,1.79-3.55a1.83,1.83,0,0,0-.14-2,6.91,6.91,0,0,0-3.27-1.65,1.61,1.61,0,0,0-1.51.14,4.94,4.94,0,0,0-1.05,1.22q-2,3.24-3.72,6.39a52.44,52.44,0,0,1-3.89,6.05l-1.9,2.44q-.94,1.19-2,2.33a11.73,11.73,0,0,1-2.73,2.27q-1.31.74-1.88.28t-.11-2.3a23.21,23.21,0,0,1,2.61-5.48q.85-1.42,1.82-3t2-3.07q1-1.5,2-2.87t1.82-2.39a5.2,5.2,0,0,0-.79-.74,6.05,6.05,0,0,0-1.19-.71,4.45,4.45,0,0,0-1.56-.37,5,5,0,0,0-1.9.28,4.24,4.24,0,0,0-1.42.88q-.74.65-1.45,1.42a17.07,17.07,0,0,0-1.31,1.59l-1,1.39a39.73,39.73,0,0,0-3.13,5.26c-.4.81-.77,1.64-1.1,2.47a8.25,8.25,0,0,1-2.11,2.1,3.64,3.64,0,0,1-3.55.4,22.62,22.62,0,0,0,1.59-5,12.39,12.39,0,0,0-.06-5.14,8.26,8.26,0,0,0-1.42-2.9,4.34,4.34,0,0,0-2.67-1.7,3.54,3.54,0,0,0-1.82.11l-.17-.11a6.25,6.25,0,0,0-2-.6,8.52,8.52,0,0,0-2.07,0,9.66,9.66,0,0,0-3.66,1.08,14.75,14.75,0,0,0-3.15,2.22,18.27,18.27,0,0,0-2.56,3.07,19.55,19.55,0,0,0-1.9,3.64,19.89,19.89,0,0,0-.67,2c-.62,1.17-1.24,2.22-1.86,3.15a28.69,28.69,0,0,1-2.39,3.1,18.32,18.32,0,0,1-3.52,3.1,4,4,0,0,1-2.61.88q-1-.17-1-1.62a11.84,11.84,0,0,1,1.33-4.46q.68-1.48,1.31-2.7l.85-1.68,4.83-9.72,1.31-2.73h.11l1.19-.17,1.88-.23q1-.11,2-.28l1.7-.28c.49-.08.79-.19.88-.34a1.84,1.84,0,0,0,0-1.08,3.77,3.77,0,0,0-1.05-2,4.61,4.61,0,0,0-2-1.16,13,13,0,0,0-2-.34l.68-1.36q.34-.68.57-1.22a2,2,0,0,0,0-1.34,2.17,2.17,0,0,0-.6-.8,4.49,4.49,0,0,0-1.14-.77,5.06,5.06,0,0,0-1.36-.43,1.48,1.48,0,0,0-1.16.23,3.25,3.25,0,0,0-.94,1.22,14,14,0,0,1-.71,1.39l-1.65,3.13c-.19,0-.38.07-.57.09l-.57,0a24.86,24.86,0,0,0-3.1.57,7.59,7.59,0,0,0-2.87,1.36,4,4,0,0,0-.88,1,5.77,5.77,0,0,0-.68,1.36,5.17,5.17,0,0,0-.28,1.51,2.7,2.7,0,0,0,.26,1.33q.45,0,1.82-.14t3.13-.37L118.8,200a59.63,59.63,0,0,0-2.93,5.94l-.17.41a34.79,34.79,0,0,1-2.76,4.22,13.39,13.39,0,0,1-4.06,3.55q-2.39,1.31-3.38.71t-.37-2.36a32.82,32.82,0,0,1,2.07-4.8q1.22-2.3,2.42-4.63l2.44-4.6q.28-.51.57-1.08a4.53,4.53,0,0,0,.4-1.14c.08-.26-.17-.68-.74-1.25a8,8,0,0,0-2.33-1.53,4.72,4.72,0,0,0-2.84-.46,9.73,9.73,0,0,0-3.64,1.76A36.86,36.86,0,0,0,95.7,202l1.36-2.79a14.48,14.48,0,0,1,.74-1.39,4.34,4.34,0,0,0,.57-1.39,1.39,1.39,0,0,0-.37-1,6.18,6.18,0,0,0-1.11-1.11,7.16,7.16,0,0,0-1.51-.91,4.76,4.76,0,0,0-1.56-.43,3.37,3.37,0,0,0-1.51.23,8.16,8.16,0,0,0-1.34.68,14.21,14.21,0,0,0-1.16.82,9.9,9.9,0,0,0-.88.77,28.69,28.69,0,0,0-2.33,2.22q-1.36,1.42-2.78,3t-2.73,3.07q-1.31,1.51-2.1,2.47.51-.91,1.31-2.22t1.68-2.7l1.76-2.79q.88-1.39,1.51-2.53a1.71,1.71,0,0,0,.23-1.65,6.51,6.51,0,0,0-1.65-1.65,2.57,2.57,0,0,0-2.39-.6,2.79,2.79,0,0,0-1.59,1.28l-3.47,5.68q-1.25,2-2.59,4.32T71.32,208q-1.14,2.3-2,4.37a16.81,16.81,0,0,0-1.08,3.44,1.87,1.87,0,0,0,.43,1.42A5.86,5.86,0,0,0,70,218.56a4.7,4.7,0,0,0,1.62.77,1.5,1.5,0,0,0,1.34-.2,6.88,6.88,0,0,0,.91-1L75,216.57c.4-.53.77-1,1.11-1.54s.59-.83.74-1q1.19-1.65,2.42-3.24t2.53-3.18q2-2.5,4.18-4.92t4.52-4.58q-2,4-3.78,7.5t-3.27,6.93c-.08.23-.2.54-.37.94l-.51,1.22q-.26.63-.45,1.16t-.26.77A1.76,1.76,0,0,0,82.2,218a3.42,3.42,0,0,0,1.08.94,8.41,8.41,0,0,0,1.39.63,5.81,5.81,0,0,0,1.31.31,1.35,1.35,0,0,0,.94-.51,12.31,12.31,0,0,0,1.16-1.54q.68-1,1.59-2.5T91.89,212q1.48-2.16,3-4.18t3.24-4a46.36,46.36,0,0,1,3.21-3.35q1.85-1.76,3.49-3.07-1.14,2.27-2.42,4.4a33.93,33.93,0,0,0-2.25,4.46q-.57,1.31-1.11,2.81a17.18,17.18,0,0,0-.8,3.1,11.35,11.35,0,0,0-.09,3.1,5.12,5.12,0,0,0,1.14,2.7,4.53,4.53,0,0,0,2.5,1.85,5.87,5.87,0,0,0,2.87,0,10.16,10.16,0,0,0,2.84-1.16,15.57,15.57,0,0,0,2.47-1.79,31.46,31.46,0,0,0,3.57-3.73c0,.22-.06.44-.08.66a8.44,8.44,0,0,0,.26,2.67,5,5,0,0,0,1.14,2.22,3.89,3.89,0,0,0,2.1,1.25,7.27,7.27,0,0,0,3.49.06,8.08,8.08,0,0,0,3.1-1.36,17.73,17.73,0,0,0,3-2.53q1.36-1.45,2.59-3c.47-.62.92-1.25,1.35-1.9,0,.27,0,.54,0,.82a11.2,11.2,0,0,0,.85,3.35,9.71,9.71,0,0,0,1.82,2.81,7.74,7.74,0,0,0,2.67,1.88,7.43,7.43,0,0,0,3.41.54,9.07,9.07,0,0,0,2.93-.71,12.14,12.14,0,0,0,2.59-1.51,16.49,16.49,0,0,0,2.24-2.07q1.05-1.16,2-2.36a12.86,12.86,0,0,0,6.62-2.19l.3-.23c-.08.36-.15.72-.22,1.11a9.83,9.83,0,0,0-.09,2.67,7.15,7.15,0,0,0,.71,2.44,4.52,4.52,0,0,0,1.82,1.88,3.66,3.66,0,0,0,3,.31,9.63,9.63,0,0,0,3.15-1.76,20.6,20.6,0,0,0,3.07-3.1q1.48-1.82,2.78-3.64a11.72,11.72,0,0,0-.51,3.78,7.06,7.06,0,0,0,1.19,3.67,4.43,4.43,0,0,0,2.47,2.07,5.7,5.7,0,0,0,3,.06,10,10,0,0,0,3-1.28,12.56,12.56,0,0,0,2.47-2,34.32,34.32,0,0,0,4.2-5.23l.44-.69c.4-.5.79-1,1.18-1.64q1.11-1.7,2.19-3.75,1.31-2.39,2.27-4.63t1.59-3.89a10.48,10.48,0,0,0,1.59.54,10.36,10.36,0,0,0,1.31.26,2.34,2.34,0,0,0,.63.06,44.14,44.14,0,0,0-3.3,5A40.7,40.7,0,0,0,191,209.7Zm-41.06-6.31a13.66,13.66,0,0,1-.54,3.18,2.16,2.16,0,0,0-.68-.62,2.24,2.24,0,0,0-2,.06,8.57,8.57,0,0,0-2.07,1.36,6.11,6.11,0,0,0-1.45,2,2.41,2.41,0,0,0,0,2.07,3.1,3.1,0,0,0,1,1.22,5.54,5.54,0,0,0,1.45.77,8.51,8.51,0,0,1-3.58,2.64,4,4,0,0,1-3.3-.09,3.12,3.12,0,0,1-1.65-1.9,8.23,8.23,0,0,1-.37-3.07,15,15,0,0,1,.68-3.67,22.07,22.07,0,0,1,1.53-3.72,17,17,0,0,1,2.19-3.24,9.12,9.12,0,0,1,2.67-2.19,7.81,7.81,0,0,1,1.76-.68,6.51,6.51,0,0,1,1.93-.17,8.29,8.29,0,0,1,1.34,1.16,4,4,0,0,1,.82,1.56A11.48,11.48,0,0,1,149.94,203.39Z" id="svg_6" class="" fill="#ffffff" fill-opacity="1"/></g></svg>