<?xml version="1.0" encoding="UTF-8"?> <svg xmlns="http://www.w3.org/2000/svg" data-name="Capa 1" width="128.67" height="128.67"><rect id="backgroundrect" width="100%" height="100%" x="0" y="0" fill="none" stroke="none"></rect><title>OMTOUR_ICONOS</title><g class="currentLayer" style=""><title>Layer 1</title><path d="M32.36,39.45c.93,0,1.9.06,2.9.16v61.62a17.17,17.17,0,0,1-3.26.34c-4.2,0-7.56-1.93-9-6.93V46.47c1.72-5.69,5.15-7,9.39-7m0-5.91h0c-7.74,0-12.8,3.77-15,11.22a5.9,5.9,0,0,0-.25,1.71V94.64a5.91,5.91,0,0,0,.24,1.67c2.09,7.09,7.45,11.16,14.7,11.16a23.13,23.13,0,0,0,4.38-.44,5.91,5.91,0,0,0,4.78-5.8V39.61a5.91,5.91,0,0,0-5.35-5.88c-1.33-.13-2.42-.18-3.45-.18Z" id="svg_1" class="" fill-opacity="1" fill="#006666"></path><path d="M96.54,39.46c4.33,0,7.76,1.89,9.16,7V94.64c-1.74,5.55-5.26,6.92-9.21,6.92a24.65,24.65,0,0,1-3.1-.22V39.75a18.79,18.79,0,0,1,3.15-.29m0-5.91h0a24.75,24.75,0,0,0-4.15.37,5.91,5.91,0,0,0-4.91,5.82v61.59a5.91,5.91,0,0,0,5.16,5.86,30.42,30.42,0,0,0,3.84.27c9.41,0,13.27-6,14.85-11.06a5.91,5.91,0,0,0,.27-1.77V46.47a5.91,5.91,0,0,0-.21-1.56c-2-7.22-7.38-11.36-14.86-11.36Z" id="svg_2" class="" fill-opacity="1" fill="#006666"></path><path d="M64.31,27.1a28.52,28.52,0,0,1,12.93,3.24,2.46,2.46,0,0,1,1.09,1.77c.13,2.37.05,4.76.05,7.34h9v62h-46v-62h9c0-2.51,0-4.88,0-7.25a1.83,1.83,0,0,1,1.22-2A29,29,0,0,1,64.31,27.1M55.25,39.39H73.41c0-1.61.08-3.08,0-4.53a1.8,1.8,0,0,0-.95-1.27A22.24,22.24,0,0,0,64.32,32a22,22,0,0,0-8.16,1.61,1.63,1.63,0,0,0-.87,1.13c-.1,1.51,0,3,0,4.63m9.06-18.2h0a35,35,0,0,0-15.42,3.74,7.66,7.66,0,0,0-4.53,7.44q0,.58,0,1.17h-3a5.91,5.91,0,0,0-5.91,5.91v62a5.91,5.91,0,0,0,5.91,5.91h46a5.91,5.91,0,0,0,5.91-5.91v-62a5.91,5.91,0,0,0-5.91-5.91h-3c0-.58,0-1.16-.06-1.74a8.33,8.33,0,0,0-4.33-6.74,34.5,34.5,0,0,0-15.58-3.87Z" id="svg_3" class="" fill-opacity="1" fill="#006666"></path></g></svg> 