<?xml version="1.0" encoding="UTF-8"?> <svg xmlns="http://www.w3.org/2000/svg" data-name="Capa 1" width="128.67" height="128.67"><rect id="backgroundrect" width="100%" height="100%" x="0" y="0" fill="none" stroke="none"></rect><title>OMTOUR_ICONOS</title><g class="currentLayer" style=""><title>Layer 1</title><path d="M62.3,19.13h4.06c.18,0,.36.07.54.08A42.72,42.72,0,0,1,76,20.66a44.73,44.73,0,0,1,25,17.26,44.1,44.1,0,0,1,8.27,21.55c.1.94.18,1.89.27,2.84v4.06c0,.2-.07.39-.08.59a42.34,42.34,0,0,1-1.36,8.72,44.78,44.78,0,0,1-19.29,26.66,43.76,43.76,0,0,1-19.61,6.94c-.94.1-1.89.18-2.84.27H62.3c-.2,0-.39-.07-.59-.08a43.77,43.77,0,0,1-13-2.71A44.81,44.81,0,0,1,27,89.77,44.21,44.21,0,0,1,19.39,69.2c-.1-.94-.18-1.89-.27-2.83q0-2,0-4.06c0-.19.07-.39.08-.58A42,42,0,0,1,20.57,53a44.78,44.78,0,0,1,20-27.12,43.71,43.71,0,0,1,18.87-6.48C60.41,19.29,61.36,19.21,62.3,19.13ZM38.65,36.55l.64.45L70.52,58.61a2.08,2.08,0,0,1,.51.51L91.79,89l.54.78A37.84,37.84,0,0,0,38.65,36.55Zm-2.2,2.2a37.77,37.77,0,0,0,2.81,53.95c15.87,14,38.32,11.44,50.66-.51l-.33-.24L58.53,71.23a2.16,2.16,0,0,1-.58-.57Q48.49,56.63,39,42.6Zm24,28.93,7.36-7.26L44.5,44.11l-.06.08Z" id="svg_1" class="" fill-opacity="1" fill="#006666"></path></g></svg> 