<?xml version="1.0" encoding="UTF-8"?> <svg xmlns="http://www.w3.org/2000/svg" data-name="Capa 1" width="128.67" height="128.67" style=""><rect id="backgroundrect" width="100%" height="100%" x="0" y="0" fill="none" stroke="none"></rect><title>OMTOUR_ICONOS</title><g class="currentLayer" style=""><title>Layer 1</title><path d="M64.31,20.9q7.07,0,14.13,0c2.48,0,3.87,1.28,3.89,3.71,0,1.65.78,2.05,2.09,2.51,6.5,2.26,10.63,6.71,12,13.52a218.78,218.78,0,0,1,4,53c-.06,1.48-.69,3.46-1.77,4.24-1.89,1.38-2,3-1.83,4.87a4.56,4.56,0,0,1-2.56,5H85c-3.06-1.5-2.48-4.42-2.57-7.15H46.19c-.1,2.72.49,5.65-2.57,7.15h-9.2c-.82-.89-2-1.66-2.35-2.71-.43-1.26-.09-2.76-.23-4.14A2.89,2.89,0,0,0,31.06,99c-2.32-1.55-2.83-3.79-2.9-6.35a242.86,242.86,0,0,1,3.32-48.49c1.46-8.47,5-14.82,13.61-17.48.52-.16,1-1.14,1.12-1.8.38-2.62,1.45-3.9,4-3.92q7.05,0,14.1,0m5.84,3.56H58.61l-4.41,0h-.06c-1.27,0-2.15.38-2.17,1.83s.83,2,2.14,2H74.57c1.31,0,2.15-.56,2.13-2s-.92-1.81-2.18-1.81h-.06l-4.3,0M51,64.37h36.3c3.28,0,4.85-1.39,4.39-4.58-.84-5.91-2-11.77-3.19-17.63-.77-3.89-3.27-6.24-7.21-6.39-8.76-.35-17.53-.51-26.3-.6h-.35a59.73,59.73,0,0,0-8,.66c-3.06.41-5.5,2-6.19,5.14-1.36,6.17-2.64,12.37-3.58,18.61-.52,3.46,1,4.78,4.59,4.79H51M84.22,90.67a6.48,6.48,0,0,0,6.48-6.42,6.58,6.58,0,0,0-6.34-6.49h-.13a6.45,6.45,0,0,0-6.37,6.48,6.34,6.34,0,0,0,6.28,6.44h.09m-39.81,0a6.35,6.35,0,0,0,6.39-6.52,6.45,6.45,0,0,0-6.38-6.39h0A6.56,6.56,0,0,0,38,84.32a6.47,6.47,0,0,0,6.44,6.34h0M64.31,15c-4.75,0-9.5,0-14.14,0a9.31,9.31,0,0,0-9.35,6.89c-8.33,3.45-13.31,10.42-15.17,21.22a250.21,250.21,0,0,0-3.4,49.66c0,1.62.18,6.12,3.7,9.6a12.25,12.25,0,0,0,.53,4.56,10.43,10.43,0,0,0,3.12,4.34c.17.16.38.35.46.44a5.91,5.91,0,0,0,4.36,1.92h9.2a5.91,5.91,0,0,0,2.6-.6,9.72,9.72,0,0,0,5.42-6.55H77a9.72,9.72,0,0,0,5.42,6.55,5.91,5.91,0,0,0,2.6.6h9.2A5.91,5.91,0,0,0,97,113a10.43,10.43,0,0,0,5.71-10.77,12,12,0,0,0,3.62-8.32,222.9,222.9,0,0,0-4.08-54.43A22.93,22.93,0,0,0,88,22.18c-1-4.28-4.64-7.11-9.47-7.15s-9.53,0-14.17,0ZM43.1,58.46c.94-5.79,2.13-11.4,3.19-16.21a.74.74,0,0,1,.07-.2,2.44,2.44,0,0,1,1.14-.36,54.7,54.7,0,0,1,7.18-.61H55c10.57.11,18.62.29,26.12.59.83,0,1.33.05,1.65,1.63L83.07,45c.88,4.43,1.78,9,2.48,13.49H43.1Zm41.12,26.3h0c-.39,0-.45-.34-.45-.53a.59.59,0,0,1,.17-.42.42.42,0,0,1,.29-.14.7.7,0,0,1,.57.56.57.57,0,0,1-.57.54Z" id="svg_1" class="" fill-opacity="1" fill="#006666"></path></g></svg> 