<?xml version="1.0" encoding="UTF-8"?> <svg xmlns="http://www.w3.org/2000/svg" id="Capa_1" data-name="Capa 1" viewBox="0 0 128.67 128.67"><title>OMTOUR_ICONOS</title><path d="M57.74,33.17a19.65,19.65,0,0,1,9.41,2.54c2.61,1.41,5.16,2.92,7.78,4.31a16.77,16.77,0,0,0,7.92,2.09l.85,0a18.75,18.75,0,0,0,8.68-2.77c2.51-1.51,4.86-3.29,7.28-5l.53-.37V53.77c0,6.14,0,12.27,0,18.41a1.49,1.49,0,0,1-.63,1.32,47.23,47.23,0,0,1-8.76,5.7,17.33,17.33,0,0,1-17-.66c-2.43-1.38-4.84-2.77-7.31-4.08a18.57,18.57,0,0,0-8.78-2.27,21,21,0,0,0-9.11,2.22c-2,1-4,2.1-6,3.19a4,4,0,0,1-.05-.49q0-18.86,0-37.73a1.11,1.11,0,0,1,.32-.82,32.5,32.5,0,0,1,11.11-5,18,18,0,0,1,3.66-.38m0-5.91a24,24,0,0,0-4.86.5A38.42,38.42,0,0,0,39.75,33.6a6.94,6.94,0,0,0-3,5.76c0,12.37,0,24.41,0,37.74a8.08,8.08,0,0,0,.1,1.25,5.91,5.91,0,0,0,8.66,4.45l2-1.07c1.31-.72,2.54-1.41,3.76-2a15.29,15.29,0,0,1,6.56-1.65,12.65,12.65,0,0,1,6,1.58c2,1.07,4,2.2,6.1,3.39l1.05.6a23.22,23.22,0,0,0,22.42.86,53.65,53.65,0,0,0,9.86-6.38,7.34,7.34,0,0,0,2.89-6c0-4.8,0-9.69,0-14.41V34a5.91,5.91,0,0,0-9.32-4.83l-.24.17-.23.16c-.77.53-1.53,1.07-2.27,1.59-1.62,1.15-3.16,2.24-4.71,3.17a12.92,12.92,0,0,1-6,1.93h-.52a10.87,10.87,0,0,1-5.15-1.4c-1.35-.72-2.67-1.46-4.07-2.25-1.19-.67-2.42-1.36-3.67-2a25.58,25.58,0,0,0-12.21-3.25Z"></path><path d="M33.77,28.29a5.29,5.29,0,0,1,.69,0,5.3,5.3,0,0,1,2.76,9.2,1.54,1.54,0,0,0-.46,1q0,25.82,0,51.64a1.54,1.54,0,0,0,.47,1,5.15,5.15,0,0,1,1.55,5.45,5,5,0,0,1-4.11,3.69,4.81,4.81,0,0,1-1,.09,5.31,5.31,0,0,1-4.6-2.76,5.13,5.13,0,0,1,.81-6.08,2.54,2.54,0,0,0,.84-2.06c0-8.41,0-16.81,0-25.22s0-17,0-25.44a1.71,1.71,0,0,0-.59-1.41A5.19,5.19,0,0,1,29,31.3a5.3,5.3,0,0,1,4.79-3m0-5.91h0a11.23,11.23,0,0,0-10.13,6.39,11.11,11.11,0,0,0,1.21,11.51c0,6.37,0,12.82,0,19.06V69.82c0,6.07,0,12.34,0,18.52a11,11,0,0,0-.92,12.1,11.17,11.17,0,0,0,9.78,5.84,10.75,10.75,0,0,0,2.12-.21,11.18,11.18,0,0,0,6.83-17.7c0-15.87,0-32,0-48.09a10.94,10.94,0,0,0,2.05-8.75,11.1,11.1,0,0,0-9.48-9.06,11.27,11.27,0,0,0-1.47-.1Z"></path></svg> 