<?xml version="1.0" encoding="UTF-8"?> <svg xmlns="http://www.w3.org/2000/svg" data-name="Capa 1" width="128.67" height="128.67"><rect id="backgroundrect" width="100%" height="100%" x="0" y="0" fill="none" stroke="none"></rect><title>OMTOUR_ICONOS</title><g class="currentLayer" style=""><title>Layer 1</title><path d="M93.4,29.1V99.56H77.51V70.08H51.27V99.56h-16V29.1h16V56.18H77.51V29.1H93.4m0-5.91H77.51A5.91,5.91,0,0,0,71.6,29.1V50.27H57.18V29.1a5.91,5.91,0,0,0-5.91-5.91h-16a5.91,5.91,0,0,0-5.91,5.91V99.56a5.91,5.91,0,0,0,5.91,5.91h16a5.91,5.91,0,0,0,5.91-5.91V76H71.6V99.56a5.91,5.91,0,0,0,5.91,5.91H93.4a5.91,5.91,0,0,0,5.91-5.91V29.1a5.91,5.91,0,0,0-5.91-5.91Z" id="svg_1" class="" fill-opacity="1" fill="#006666"></path></g></svg> 