<?xml version="1.0" encoding="UTF-8"?> <svg xmlns="http://www.w3.org/2000/svg" data-name="Capa 1" width="128.67" height="128.67"><rect id="backgroundrect" width="100%" height="100%" x="0" y="0" fill="none" stroke="none"></rect><title>OMTOUR_ICONOS</title><g class="currentLayer" style=""><title>Layer 1</title><path d="M94.27,23.49A7.86,7.86,0,0,1,99.83,26c2.54,2.44,2.54,3.77-.11,6.1-5.07,4.46-10.25,8.8-15.21,13.37C80.92,48.74,77.6,52.33,73.91,56L94.91,69a60.23,60.23,0,0,1,6-4.08,10.84,10.84,0,0,1,4.81-1.37h.22c3.63.13,5.06,3,3.28,6.17-1.31,2.32-2.69,4.59-4.07,6.87q-4.58,7.54-9.2,15.05c-.76,1.24-1.29,1.77-2.11,1.77A5.07,5.07,0,0,1,92,92.85c-4.14-1.75-4.59-2.53-4.09-7.07.08-.74.11-1.48.18-2.22.4-4.27.41-4.27-3.52-6.16L67.29,69.08a16.91,16.91,0,0,0-4.19,8.19c-1.89,7.62-3.7,15.27-5.54,22.9-.86,3.59-1.56,5-3.41,5a13.41,13.41,0,0,1-4.16-1.1c-3.14-1.17-4.37-3.2-4.38-6.47,0-12.14-.25-24.28-.22-36.42,0-3.48-1.26-5.61-4.4-7.16a142.58,142.58,0,0,1-14.29-7.88,36.35,36.35,0,0,1-6.81-6.44,4.28,4.28,0,0,1-.62-5.2,4,4,0,0,1,3.65-2.07,5.57,5.57,0,0,1,1,.1c3.38.63,6.9,1.11,10,2.5a170.2,170.2,0,0,1,15.2,8.16,6.48,6.48,0,0,0,3.27,1,6.35,6.35,0,0,0,3.1-.91C66.66,37.13,77.88,31.08,89.09,25a11,11,0,0,1,5.18-1.53m0-5.91h0a16.65,16.65,0,0,0-8,2.24l-1.17.63C74.46,26.2,63.44,32.16,52.65,38.13l-.24.12-.31-.17-.54-.31a169.06,169.06,0,0,0-15.19-8.12A40.91,40.91,0,0,0,26.57,27L25,26.73a11.5,11.5,0,0,0-2.11-.2,10,10,0,0,0-8.78,5,10.21,10.21,0,0,0,1.37,12.1l.49.54a38.24,38.24,0,0,0,7.5,6.9,149.69,149.69,0,0,0,14.88,8.22c1.06.52,1.1.54,1.09,1.84,0,6.76,0,13.62.11,20.25.05,5.31.1,10.8.11,16.19,0,7.38,4.48,10.6,8.22,12a17.9,17.9,0,0,0,6.23,1.47,8.13,8.13,0,0,0,7.06-3.89,18.23,18.23,0,0,0,2.1-5.65l1.21-5c1.4-5.85,2.85-11.89,4.32-17.82a20.31,20.31,0,0,1,.6-2l.76.36L82,82.72l.22.1,0,.17c0,.38-.06.75-.09,1.12s-.05.72-.08,1c-.31,2.81-.46,5.55,1.07,8.18s4.1,3.92,6.6,5a10.54,10.54,0,0,0,4.15,1c4.32,0,6.44-3.46,7.14-4.59,3.3-5.37,6.31-10.3,9.21-15.07,1.3-2.14,2.78-4.57,4.17-7a10.12,10.12,0,0,0,.35-10.1,9.88,9.88,0,0,0-8.57-4.89h-.42a16.68,16.68,0,0,0-7.58,2.06,31.3,31.3,0,0,0-3.5,2.2L84,55.3l-.68-.42c1.74-1.77,3.44-3.47,5.19-5.08,3.19-2.93,6.55-5.84,9.81-8.66,1.74-1.51,3.54-3.07,5.31-4.62,1.07-.94,3.92-3.45,4-7.3s-2.67-6.5-3.71-7.5a13.66,13.66,0,0,0-9.65-4.14Z" id="svg_1" class="" fill-opacity="1" fill="#006666"></path></g></svg> 