<?xml version="1.0" encoding="UTF-8"?> <svg xmlns="http://www.w3.org/2000/svg" data-name="Capa 1" width="128.67" height="128.67" style=""><rect id="backgroundrect" width="100%" height="100%" x="0" y="0" fill="none" stroke="none"></rect><title>OMTOUR_ICONOS</title><g class="currentLayer" style=""><title>Layer 1</title><path d="M90.81,20a3.3,3.3,0,0,1,1.08.19,2.62,2.62,0,0,1,1.8,2.32,3.54,3.54,0,0,1-1.27,3q-8.06,8-16.09,16.08c-.26.26-.51.54-.7.74l4.21,4.26c.22-.21.5-.45.76-.71q8-8,16-16A5.76,5.76,0,0,1,98,28.82a3,3,0,0,1,1.39-.34,2.82,2.82,0,0,1,2,.79,2.88,2.88,0,0,1,.53,3.43,5.67,5.67,0,0,1-1.06,1.38q-8,8-16,16c-.26.26-.51.54-.71.75l4.19,4.28c.25-.24.52-.48.79-.74q8-8,16-15.93a6.09,6.09,0,0,1,1.55-1.17,2.92,2.92,0,0,1,1.29-.3,2.85,2.85,0,0,1,2.53,4.14,5.7,5.7,0,0,1-1.11,1.47Q99,53,88.56,63.35A6.44,6.44,0,0,1,84,65.44a6.52,6.52,0,0,1-4.58-2.11c-.58-.58-1.12-1.2-1.59-1.72L71.6,67.83a5,5,0,0,1,1,.62q14.86,14.83,29.71,29.67a6,6,0,0,1,1.93,5.71,5.66,5.66,0,0,1-4.06,4.54,6.47,6.47,0,0,1-1.94.31,5.7,5.7,0,0,1-4.07-1.76c-3.15-3.09-6.25-6.23-9.37-9.35L63.87,76.67c-.19-.19-.4-.37-1-.92a4.94,4.94,0,0,1-.66,1.2Q47.38,91.8,32.53,106.63a6.5,6.5,0,0,1-4.58,2,5.83,5.83,0,0,1-4.18-1.8,6,6,0,0,1-.34-8c.29-.34.61-.66.92-1q14.7-14.7,29.41-29.39a11,11,0,0,1,1.14-.85c-2-2-3.82-3.79-5.63-5.53a1,1,0,0,0-.63-.2.87.87,0,0,0-.26,0,10.21,10.21,0,0,1-3.11.52,9.22,9.22,0,0,1-6.62-3c-6-5.93-12-11.82-17.92-17.76a8.89,8.89,0,0,1,6.12-15.35,8.51,8.51,0,0,1,5.9,2.36c4.63,4.39,9.06,9,13.57,13.48L62.42,58.26c.24.24.49.46.67.63l6-6.05c-.62-.55-1.34-1.13-2-1.79a5.93,5.93,0,0,1,0-8.68q10.59-10.62,21.2-21.21A3.5,3.5,0,0,1,90.81,20m0-5.91A9.27,9.27,0,0,0,84.15,17l-6.83,6.82Q70.13,31,62.94,38.2a12,12,0,0,0-3.6,8.63L50.5,38l-3.91-3.93c-3.16-3.19-6.43-6.49-9.78-9.66a14.44,14.44,0,0,0-10-4,14.8,14.8,0,0,0-10.3,25.44c3.38,3.38,6.84,6.79,10.17,10.09l7.75,7.68a15.17,15.17,0,0,0,10.79,4.72h.26L20.18,93.69l-.09.09c-.34.34-.76.76-1.19,1.28A11.9,11.9,0,0,0,28,114.56a12.37,12.37,0,0,0,8.75-3.74C46.34,101.19,55,92.49,63.18,84.33l9.11,9.11,8.31,8.31,2.6,2.61c2.22,2.23,4.51,4.53,6.81,6.78a11.55,11.55,0,0,0,8.21,3.45,12.39,12.39,0,0,0,3.71-.58,11.57,11.57,0,0,0,8.08-9,12,12,0,0,0-3.56-11L90.7,78.2l-6.85-6.85H84a12.39,12.39,0,0,0,8.72-3.82C99,61.32,106.29,54,113.51,46.76a11.37,11.37,0,0,0,2.23-3.05,8.76,8.76,0,0,0-7.6-12.63,8.75,8.75,0,0,0-8.51-8.5c0-.29,0-.56-.06-.81a8.52,8.52,0,0,0-5.74-7.17,9.22,9.22,0,0,0-3-.52Z" id="svg_1" class="" fill-opacity="1" fill="#006666"></path></g></svg> 