<svg xmlns="http://www.w3.org/2000/svg" data-name="Capa 1" width="128.67" height="128.67"><rect id="backgroundrect" width="100%" height="100%" x="0" y="0" fill="none" stroke="none"/><title>OMTOUR_ICONOS</title><g class="currentLayer" style=""><title>Layer 1</title><path d="M90.5,82.45c-.54,2.12-1,4.11-1.58,6A10.17,10.17,0,0,1,84.73,94a7.48,7.48,0,0,1-7.09.8,1.42,1.42,0,0,0-1.51.24,23.86,23.86,0,0,1-4.25,2.47,6.56,6.56,0,0,1-7.73-2c-.47-.53-.88-1.11-1.37-1.74a9.8,9.8,0,0,1-6.65,1.94A6.15,6.15,0,0,1,50.74,92,42.21,42.21,0,0,1,45,93.46c-3.76.45-7.55.67-11.34.91-5.77.36-11.55.65-17.33,1a2.38,2.38,0,0,0-1.1.44,2.49,2.49,0,0,1-4-1.85,9,9,0,0,1,0-1q0-16.52,0-33c0-2.68.72-3.33,3.44-3.22a1.37,1.37,0,0,0,.78-.34c6.45-4.92,12.91-9.83,19.32-14.81,1.63-1.26,3.09-2.75,4.62-4.13,2.33-2.11,5-3,8.09-2.08A1.46,1.46,0,0,0,48.65,35c.94-.81,1.78-1.72,2.7-2.55a7,7,0,0,1,4.84-1.85q25.88,0,51.75,0a9.66,9.66,0,0,1,8.9,7,11.07,11.07,0,0,1,.49,3.2c0,10.79.21,21.58-.06,32.36-.14,5.63-3.92,9.3-9.14,9.3H90.5ZM16.26,91.06c.57,0,1,0,1.38,0,8.14-.46,16.28-.86,24.41-1.4A17.31,17.31,0,0,0,54.33,83.8a56.17,56.17,0,0,1,4.51-4.72,20.83,20.83,0,0,1,4.23-2.9C65.33,75,67.8,74.23,70,73a36.57,36.57,0,0,0,5.62-4.09A7.24,7.24,0,0,0,78,63.71c.25-3.62-2-5.52-5.42-4.43a49.56,49.56,0,0,0-6.08,2.35C60,64.74,53.43,67.94,46.87,71.1a10.79,10.79,0,0,1-1.24.53,1.85,1.85,0,0,1-2.42-.86,1.9,1.9,0,0,1,.41-2.55,5.43,5.43,0,0,1,1.82-1.08C46.73,66.73,47,65.9,47,64.66c0-7.81,0-15.63,0-23.44,0-1.68-.88-2.45-2.5-1.91A9.57,9.57,0,0,0,41.67,41c-2.8,2.27-5.48,4.69-8.31,6.91-5.15,4-10.34,8-15.61,11.86a3.27,3.27,0,0,0-1.52,3.09c.07,8.9,0,17.81,0,26.71ZM70,77.86l.07.26c.43,0,.86.06,1.29.06h36.07c3.92,0,5.88-1.94,5.89-5.89,0-6.95,0-13.9,0-20.85,0-1-.24-1.44-1.38-1.44Q82.12,50,52.31,50c-.39,0-.79,0-1.17.07V64.31c.52-.22.93-.37,1.32-.57,4.35-2.12,8.67-4.31,13.06-6.33a38.34,38.34,0,0,1,6.84-2.51c4.44-1.09,8.12,1.19,9.34,5.6a11.25,11.25,0,0,1-2.48,10.62,25.82,25.82,0,0,1-8,6C70.82,77.36,70.39,77.61,70,77.86Zm43.28-36.51c0-4.1-2.38-6.48-6.35-6.48H57.07a5.83,5.83,0,0,0-5.82,4.8c-.34,1.61-.29,1.68,1.32,1.68h60.67ZM66.87,82.53c-.15,2.91-.39,5.74-.41,8.57a2.73,2.73,0,0,0,2.39,2.49,4.77,4.77,0,0,0,4.34-1.32,3.83,3.83,0,0,0,1.26-2.14c.19-2.28.14-4.57.12-6.86,0-.25-.37-.7-.57-.7C71.73,82.51,69.45,82.53,66.87,82.53Zm19.23-.06c-2.31,0-4.47,0-6.64,0-.23,0-.61.49-.63.77q-.22,2.74-.29,5.5c-.06,2.2,1,2.9,3.07,2.14a4,4,0,0,0,1.18-.63C85.18,88.28,85.83,85.54,86.1,82.47ZM62.8,83.81c.07-1.35-.34-1.67-1.31-1.22a4.45,4.45,0,0,0-1.23.95c-1.75,1.76-3.47,3.54-5.21,5.31a1.37,1.37,0,0,0,.46,2.4c2.36,1,6.38-1.18,6.83-3.69C62.57,86.22,62.68,84.87,62.8,83.81Z" id="svg_1" class="" fill="#339999" fill-opacity="1"/></g></svg>