<svg xmlns="http://www.w3.org/2000/svg" data-name="Capa 1" width="128.67" height="128.67"><rect id="backgroundrect" width="100%" height="100%" x="0" y="0" fill="none" stroke="none"/><title>OMTOUR_ICONOS</title><g class="currentLayer" style=""><title>Layer 1</title><path d="M64.33,33A31.32,31.32,0,1,1,33,64.33,31.36,31.36,0,0,1,64.33,33m0-5.91a37.23,37.23,0,1,0,37.23,37.23A37.23,37.23,0,0,0,64.33,27.1Z" id="svg_1" class="" fill-opacity="1" fill="#339999"/><path d="M76.15,69.06v.81l-.22.67-.59,1.18-.67,1.11-.37.67-.3.59-.44.67-.22.44-.37.67-.37.59-.37.52-.44.59-.37.52-.74,1.18-1.33,1.55-.89,1-.52.52-.44.52-.52.44-1.63,1.26-.52.37-.67.3-.67.22-.59.15-1.33.3H60.32l-.81-.07-.59-.22-.67-.22L57.66,85l-.52-.44L56.77,84l-.37-.59-.3-.67L56,82.15l-.15-.67-.07-.67v-.67l.15-1.33.15-.67.22-.67.3-1.33.22-.59.15-.67.22-.67.22-.59.67-2,.07-.59.15-.67.22-.67.15-.67.15-.59.44-1.33.22-.89.22-1L60.1,64l.15-.67.15-.52.15-.67.3-.74.22-.59.44-2,.22-.67.22-.89.3-1,.22-.67.3-.59.44-.37.67-.3.59-.07.74.07,1.33.15,1.18.44.37.52v.67l-.15.67-.22.89-.22,1L67.05,60l-.15.59-.15.67-.22.74-.22.89-.74,2.22-.15.67-.3,1-.52,1.55-.15.67-.15.59-.15.67-.52,1.26-.15.67L63,73.94l-.44,1.33-.15.67-.22,1-.22,1.18-.15,1.26.15,1.11.59.81.81.22.67-.07.67-.3.52-.37.59-.44,2.44-2.44.44-.52.37-.52.44-.59.74-1.18.44-.52.3-.44.37-.59.44-.67.3-.67.59-1.26.89-1.78.37-.59.67-.37,1,.15ZM64.24,46.35l.37-.59.59-.52.59-.37.74-.22.67-.15h.74l.67.15.59.37.52.44.52.52.37.59.22.67.07.67v.74l-.22.67-.37.59-.44.59-.52.44-.59.44-.67.3-.74.15-.67-.07-.74-.15-1.18-.74-.44-.52-.37-.59-.15-.67-.07-.67.07-.67.15-.74Z" id="svg_2" class="" fill-opacity="1" fill="#339999"/></g></svg>