<svg xmlns="http://www.w3.org/2000/svg" data-name="Capa 1" width="128.67" height="128.67"><rect id="backgroundrect" width="100%" height="100%" x="0" y="0" fill="none" stroke="none"/><title>OMTOUR_ICONOS</title><g class="currentLayer" style=""><title>Layer 1</title><path d="M66,33.86c.84.13,1.68.22,2.52.38A22.83,22.83,0,0,1,83,69.9Q74.64,81.74,66.22,93.51a9.14,9.14,0,0,1-1.41,1.3h-1a6.22,6.22,0,0,1-1.2-1q-8.52-12-17-24a22.23,22.23,0,0,1-4-16.23A22.82,22.82,0,0,1,59.28,34.44c1.12-.25,2.26-.39,3.39-.58H66M64.31,64.33a7.62,7.62,0,0,0,.06-15.24h0a7.62,7.62,0,0,0-.08,15.24h0M66,27.58H62.67a6.29,6.29,0,0,0-1,.09l-1,.16c-.83.13-1.76.27-2.74.49A29.14,29.14,0,0,0,35.47,52.79a28.39,28.39,0,0,0,5.06,20.67c5.57,7.92,11.23,15.86,17,24a9.16,9.16,0,0,0,2.25,2.17l.11.08a6.28,6.28,0,0,0,4,1.4h1A6.28,6.28,0,0,0,69,99.46l.2-.16a10.68,10.68,0,0,0,2.11-2.14c5.71-8,11.3-15.85,16.78-23.65A29.12,29.12,0,0,0,69.72,28.07c-.74-.14-1.45-.24-2.07-.33l-.72-.1a6.31,6.31,0,0,0-.93-.07ZM64.31,58h0a1.34,1.34,0,0,1,0-2.67,1.29,1.29,0,0,1,.93.39,1.36,1.36,0,0,1,.4,1A1.33,1.33,0,0,1,64.31,58Z" id="svg_1" class="" fill-opacity="1" fill="#339999"/><circle cx="64.75" cy="57.18000030517578" r="4.139999866485596" id="svg_2" class="" fill-opacity="1" fill="#339999"/></g></svg>