<svg xmlns="http://www.w3.org/2000/svg" data-name="Capa 1" width="128.67" height="128.67"><rect id="backgroundrect" width="100%" height="100%" x="0" y="0" fill="none" stroke="none"/><title>OMTOUR_ICONOS</title><g class="currentLayer" style=""><title>Layer 1</title><path d="M67.82,87.29a3.08,3.08,0,0,1-1,2.32,3.35,3.35,0,0,1-2.37,1,3.26,3.26,0,0,1-3.18-3.17,3.1,3.1,0,0,1,1-2.36,3.39,3.39,0,0,1,2.42-.92,3.11,3.11,0,0,1,3.18,3.17ZM67.69,56q0,.41-.58,6.68L65.56,79.48q-.11,1.08-.91,1.08t-.94-1.08L62,62.66q-.52-5.22-.52-6.68,0-4.83,3.26-4.83,2.93,0,2.93,4.72Z" id="svg_1" class="" fill-opacity="1" fill="#339999"/><path d="M64.33,34.79,80.88,64.33,97.43,93.88H31.24L47.79,64.33,64.33,34.79m0-5.91a5.91,5.91,0,0,0-5.16,3L42.63,61.45,26.08,91a5.91,5.91,0,0,0,5.16,8.8H97.43a5.91,5.91,0,0,0,5.16-8.8L86,61.45,69.49,31.9a5.91,5.91,0,0,0-5.16-3Z" id="svg_2" class="" fill-opacity="1" fill="#339999"/></g></svg>